<svg width="189" height="31" viewBox="0 0 189 31" fill="none" xmlns="http://www.w3.org/2000/svg">
<path d="M24.2461 27.168C22.944 28.2747 21.4922 29.1276 19.8906 29.7266C18.2891 30.3125 16.6224 30.6055 14.8906 30.6055C13.5625 30.6055 12.2799 30.4297 11.043 30.0781C9.81901 29.7396 8.67318 29.2578 7.60547 28.6328C6.53776 27.9948 5.5612 27.2396 4.67578 26.3672C3.79036 25.4818 3.03516 24.5052 2.41016 23.4375C1.78516 22.3568 1.29688 21.1979 0.945312 19.9609C0.606771 18.724 0.4375 17.4414 0.4375 16.1133C0.4375 14.7852 0.606771 13.5091 0.945312 12.2852C1.29688 11.0612 1.78516 9.91536 2.41016 8.84766C3.03516 7.76693 3.79036 6.79036 4.67578 5.91797C5.5612 5.03255 6.53776 4.27734 7.60547 3.65234C8.67318 3.02734 9.81901 2.54557 11.043 2.20703C12.2799 1.85547 13.5625 1.67969 14.8906 1.67969C16.6224 1.67969 18.2891 1.97917 19.8906 2.57812C21.4922 3.16406 22.944 4.01042 24.2461 5.11719L21.3164 10C20.4701 9.14062 19.4935 8.47005 18.3867 7.98828C17.2799 7.49349 16.1146 7.24609 14.8906 7.24609C13.6667 7.24609 12.5143 7.48047 11.4336 7.94922C10.3659 8.41797 9.42839 9.05599 8.62109 9.86328C7.8138 10.6576 7.17578 11.5951 6.70703 12.6758C6.23828 13.7435 6.00391 14.8893 6.00391 16.1133C6.00391 17.3503 6.23828 18.5091 6.70703 19.5898C7.17578 20.6706 7.8138 21.6146 8.62109 22.4219C9.42839 23.2292 10.3659 23.8672 11.4336 24.3359C12.5143 24.8047 13.6667 25.0391 14.8906 25.0391C15.5938 25.0391 16.2773 24.9544 16.9414 24.7852C17.6055 24.6159 18.237 24.3815 18.8359 24.082V16.1133H24.2461V27.168ZM33.1328 30H27.8008V9.08203H29.0898L30.8477 11.5625C31.707 10.7812 32.6836 10.1823 33.7773 9.76562C34.8711 9.33594 36.0039 9.12109 37.1758 9.12109H41.8828V14.4336H37.1758C36.6159 14.4336 36.0885 14.5378 35.5938 14.7461C35.099 14.9544 34.6693 15.2409 34.3047 15.6055C33.9401 15.9701 33.6536 16.3997 33.4453 16.8945C33.237 17.3893 33.1328 17.9167 33.1328 18.4766V30ZM52.293 24.8828C52.5013 24.9479 52.7096 24.9935 52.918 25.0195C53.1263 25.0326 53.3346 25.0391 53.543 25.0391C54.0638 25.0391 54.5651 24.9674 55.0469 24.8242C55.5286 24.681 55.9779 24.4792 56.3945 24.2188C56.8242 23.9453 57.2018 23.6198 57.5273 23.2422C57.8659 22.8516 58.1393 22.4219 58.3477 21.9531L62.2539 25.8789C61.7591 26.582 61.1862 27.2135 60.5352 27.7734C59.8971 28.3333 59.2005 28.8086 58.4453 29.1992C57.7031 29.5898 56.9154 29.8828 56.082 30.0781C55.2617 30.2865 54.4154 30.3906 53.543 30.3906C52.0716 30.3906 50.6849 30.1172 49.3828 29.5703C48.0938 29.0234 46.9609 28.2617 45.9844 27.2852C45.0208 26.3086 44.2591 25.1497 43.6992 23.8086C43.1393 22.4544 42.8594 20.9701 42.8594 19.3555C42.8594 17.7018 43.1393 16.1914 43.6992 14.8242C44.2591 13.457 45.0208 12.2917 45.9844 11.3281C46.9609 10.3646 48.0938 9.61589 49.3828 9.08203C50.6849 8.54818 52.0716 8.28125 53.543 8.28125C54.4154 8.28125 55.2682 8.38542 56.1016 8.59375C56.9349 8.80208 57.7227 9.10156 58.4648 9.49219C59.2201 9.88281 59.9232 10.3646 60.5742 10.9375C61.2253 11.4974 61.7982 12.1289 62.293 12.832L52.293 24.8828ZM55.0273 13.8867C54.7799 13.7956 54.5326 13.737 54.2852 13.7109C54.0508 13.6849 53.8034 13.6719 53.543 13.6719C52.8138 13.6719 52.1237 13.8086 51.4727 14.082C50.8346 14.3424 50.2747 14.7201 49.793 15.2148C49.3242 15.7096 48.9531 16.3086 48.6797 17.0117C48.4062 17.7018 48.2695 18.4831 48.2695 19.3555C48.2695 19.5508 48.276 19.7721 48.2891 20.0195C48.3151 20.2669 48.3477 20.5208 48.3867 20.7812C48.4388 21.0286 48.4974 21.2695 48.5625 21.5039C48.6276 21.7383 48.7122 21.9466 48.8164 22.1289L55.0273 13.8867ZM73.1523 24.8828C73.3607 24.9479 73.569 24.9935 73.7773 25.0195C73.9857 25.0326 74.194 25.0391 74.4023 25.0391C74.9232 25.0391 75.4245 24.9674 75.9062 24.8242C76.388 24.681 76.8372 24.4792 77.2539 24.2188C77.6836 23.9453 78.0612 23.6198 78.3867 23.2422C78.7253 22.8516 78.9987 22.4219 79.207 21.9531L83.1133 25.8789C82.6185 26.582 82.0456 27.2135 81.3945 27.7734C80.7565 28.3333 80.0599 28.8086 79.3047 29.1992C78.5625 29.5898 77.7747 29.8828 76.9414 30.0781C76.1211 30.2865 75.2747 30.3906 74.4023 30.3906C72.931 30.3906 71.5443 30.1172 70.2422 29.5703C68.9531 29.0234 67.8203 28.2617 66.8438 27.2852C65.8802 26.3086 65.1185 25.1497 64.5586 23.8086C63.9987 22.4544 63.7188 20.9701 63.7188 19.3555C63.7188 17.7018 63.9987 16.1914 64.5586 14.8242C65.1185 13.457 65.8802 12.2917 66.8438 11.3281C67.8203 10.3646 68.9531 9.61589 70.2422 9.08203C71.5443 8.54818 72.931 8.28125 74.4023 8.28125C75.2747 8.28125 76.1276 8.38542 76.9609 8.59375C77.7943 8.80208 78.582 9.10156 79.3242 9.49219C80.0794 9.88281 80.7826 10.3646 81.4336 10.9375C82.0846 11.4974 82.6576 12.1289 83.1523 12.832L73.1523 24.8828ZM75.8867 13.8867C75.6393 13.7956 75.3919 13.737 75.1445 13.7109C74.9102 13.6849 74.6628 13.6719 74.4023 13.6719C73.6732 13.6719 72.9831 13.8086 72.332 14.082C71.694 14.3424 71.1341 14.7201 70.6523 15.2148C70.1836 15.7096 69.8125 16.3086 69.5391 17.0117C69.2656 17.7018 69.1289 18.4831 69.1289 19.3555C69.1289 19.5508 69.1354 19.7721 69.1484 20.0195C69.1745 20.2669 69.207 20.5208 69.2461 20.7812C69.2982 21.0286 69.3568 21.2695 69.4219 21.5039C69.487 21.7383 69.5716 21.9466 69.6758 22.1289L75.8867 13.8867ZM91.1797 30H85.8477V9.08203H87.1367L88.8945 11.1133C89.7539 10.332 90.724 9.73307 91.8047 9.31641C92.8984 8.88672 94.0378 8.67188 95.2227 8.67188C96.4987 8.67188 97.7031 8.91927 98.8359 9.41406C99.9688 9.89583 100.958 10.5664 101.805 11.4258C102.651 12.2721 103.315 13.2682 103.797 14.4141C104.292 15.5469 104.539 16.7578 104.539 18.0469V30H99.207V18.0469C99.207 17.5 99.1029 16.9857 98.8945 16.5039C98.6862 16.0091 98.3997 15.5794 98.0352 15.2148C97.6706 14.8503 97.2474 14.5638 96.7656 14.3555C96.2839 14.1471 95.7695 14.043 95.2227 14.043C94.6628 14.043 94.1354 14.1471 93.6406 14.3555C93.1458 14.5638 92.7161 14.8503 92.3516 15.2148C91.987 15.5794 91.7005 16.0091 91.4922 16.5039C91.2839 16.9857 91.1797 17.5 91.1797 18.0469V30Z" fill="#16CA7E"/>
<path d="M131.277 27.1289C129.975 28.2487 128.517 29.1081 126.902 29.707C125.288 30.306 123.615 30.6055 121.883 30.6055C120.555 30.6055 119.272 30.4297 118.035 30.0781C116.811 29.7396 115.659 29.2578 114.578 28.6328C113.51 27.9948 112.534 27.2331 111.648 26.3477C110.763 25.4622 110.001 24.4857 109.363 23.418C108.738 22.3372 108.25 21.1849 107.898 19.9609C107.56 18.724 107.391 17.4414 107.391 16.1133C107.391 14.7852 107.56 13.5026 107.898 12.2656C108.25 11.0286 108.738 9.8763 109.363 8.80859C110.001 7.72786 110.763 6.74479 111.648 5.85938C112.534 4.97396 113.51 4.21875 114.578 3.59375C115.659 2.95573 116.811 2.46745 118.035 2.12891C119.272 1.77734 120.555 1.60156 121.883 1.60156C123.615 1.60156 125.288 1.90104 126.902 2.5C128.517 3.08594 129.975 3.94531 131.277 5.07812L128.309 9.96094C127.488 9.07552 126.518 8.39844 125.398 7.92969C124.279 7.44792 123.107 7.20703 121.883 7.20703C120.646 7.20703 119.487 7.44141 118.406 7.91016C117.326 8.37891 116.382 9.01693 115.574 9.82422C114.767 10.6185 114.129 11.5625 113.66 12.6562C113.191 13.737 112.957 14.8893 112.957 16.1133C112.957 17.3372 113.191 18.4896 113.66 19.5703C114.129 20.638 114.767 21.5755 115.574 22.3828C116.382 23.1901 117.326 23.8281 118.406 24.2969C119.487 24.7656 120.646 25 121.883 25C123.107 25 124.279 24.7656 125.398 24.2969C126.518 23.8151 127.488 23.1315 128.309 22.2461L131.277 27.1289ZM153.484 30H152.195L150.125 27.1289C149.617 27.5846 149.077 28.0143 148.504 28.418C147.944 28.8086 147.352 29.1536 146.727 29.4531C146.102 29.7396 145.457 29.9674 144.793 30.1367C144.142 30.306 143.478 30.3906 142.801 30.3906C141.329 30.3906 139.943 30.1432 138.641 29.6484C137.352 29.1536 136.219 28.4375 135.242 27.5C134.279 26.5495 133.517 25.3906 132.957 24.0234C132.397 22.6562 132.117 21.1003 132.117 19.3555C132.117 17.7279 132.397 16.237 132.957 14.8828C133.517 13.5156 134.279 12.3438 135.242 11.3672C136.219 10.3906 137.352 9.63542 138.641 9.10156C139.943 8.55469 141.329 8.28125 142.801 8.28125C143.478 8.28125 144.148 8.36589 144.812 8.53516C145.477 8.70443 146.121 8.9388 146.746 9.23828C147.371 9.53776 147.964 9.88932 148.523 10.293C149.096 10.6966 149.63 11.1328 150.125 11.6016L152.195 9.12109H153.484V30ZM148.113 19.3555C148.113 18.6263 147.97 17.9232 147.684 17.2461C147.41 16.556 147.033 15.9505 146.551 15.4297C146.069 14.8958 145.503 14.4727 144.852 14.1602C144.214 13.8346 143.53 13.6719 142.801 13.6719C142.072 13.6719 141.382 13.7956 140.73 14.043C140.092 14.2904 139.533 14.6549 139.051 15.1367C138.582 15.6185 138.211 16.2174 137.938 16.9336C137.664 17.6367 137.527 18.444 137.527 19.3555C137.527 20.2669 137.664 21.0807 137.938 21.7969C138.211 22.5 138.582 23.0924 139.051 23.5742C139.533 24.056 140.092 24.4206 140.73 24.668C141.382 24.9154 142.072 25.0391 142.801 25.0391C143.53 25.0391 144.214 24.8828 144.852 24.5703C145.503 24.2448 146.069 23.8216 146.551 23.3008C147.033 22.7669 147.41 22.1615 147.684 21.4844C147.97 20.7943 148.113 20.0846 148.113 19.3555ZM162.898 30H157.566V9.08203H158.855L160.613 11.5625C161.473 10.7812 162.449 10.1823 163.543 9.76562C164.637 9.33594 165.77 9.12109 166.941 9.12109H171.648V14.4336H166.941C166.382 14.4336 165.854 14.5378 165.359 14.7461C164.865 14.9544 164.435 15.2409 164.07 15.6055C163.706 15.9701 163.419 16.3997 163.211 16.8945C163.003 17.3893 162.898 17.9167 162.898 18.4766V30ZM184.617 30C183.328 30 182.117 29.7591 180.984 29.2773C179.852 28.7826 178.855 28.112 177.996 27.2656C177.15 26.4062 176.479 25.4102 175.984 24.2773C175.503 23.1445 175.262 21.9336 175.262 20.6445V14.4336H172.664V9.12109H175.262V0.761719H180.574V9.12109H188.66V14.4336H180.574V20.6445C180.574 21.2044 180.678 21.7318 180.887 22.2266C181.095 22.7083 181.382 23.1315 181.746 23.4961C182.111 23.8607 182.54 24.1536 183.035 24.375C183.53 24.5833 184.057 24.6875 184.617 24.6875H188.66V30H184.617Z" fill="white"/>
</svg>
